<?xml version="1.0" standalone="no"?>
<!DOCTYPE svg PUBLIC "-//W3C//DTD SVG 20010904//EN"
 "http://www.w3.org/TR/2001/REC-SVG-20010904/DTD/svg10.dtd">
<svg version="1.0" xmlns="http://www.w3.org/2000/svg"
 width="32.000000pt" height="22.000000pt" viewBox="0 0 32.000000 22.000000"
 preserveAspectRatio="xMidYMid meet">

<g transform="translate(0.000000,22.000000) scale(0.100000,-0.100000)"
fill="#ffffff" stroke="none">
<path d="M170 203 c-16 -11 -39 -16 -72 -14 -39 2 -52 -2 -73 -23 -47 -47 -23
-119 45 -133 16 -3 35 -12 41 -19 16 -20 29 -17 29 6 0 10 9 24 20 30 16 9 20
8 20 -5 0 -19 9 -19 34 0 11 8 28 15 38 15 29 0 68 45 68 79 0 63 -94 103
-150 64z m100 -8 c56 -29 45 -106 -18 -121 -15 -4 -32 -11 -38 -16 -14 -10
-24 11 -24 52 0 16 -7 35 -15 44 -21 20 -19 31 8 44 31 15 54 14 87 -3z m-115
-40 c37 -36 30 -76 -18 -108 -46 -30 -127 12 -127 66 0 10 11 29 25 42 33 34
87 34 120 0z"/>
<path d="M211 139 c-14 -42 -14 -44 5 -28 13 10 17 10 25 -2 7 -12 9 -12 9 1
0 25 -12 60 -20 60 -5 0 -13 -14 -19 -31z"/>
<path d="M66 143 c-2 -3 -2 -11 1 -19 3 -8 0 -14 -7 -14 -23 0 -4 -33 21 -36
40 -4 57 11 41 36 -7 11 -10 25 -8 29 6 9 -39 12 -48 4z m49 -54 c-10 -15 -25
-10 -19 6 4 8 10 12 15 9 5 -3 7 -10 4 -15z"/>
</g>
</svg>
