<?xml version="1.0" standalone="no"?>
<!DOCTYPE svg PUBLIC "-//W3C//DTD SVG 20010904//EN"
 "http://www.w3.org/TR/2001/REC-SVG-20010904/DTD/svg10.dtd">
<svg version="1.0" xmlns="http://www.w3.org/2000/svg"
 width="32pt" height="22pt" viewBox="0 0 48.000000 30.000000"
 preserveAspectRatio="xMidYMid meet">

<g transform="translate(0.000000,30.000000) scale(0.100000,-0.100000)"
fill="#ffffff" stroke="none">
<path d="M0 280 c0 -6 87 -10 240 -10 153 0 240 4 240 10 0 6 -87 10 -240 10
-153 0 -240 -4 -240 -10z"/>
<path d="M283 230 c-45 -18 -51 -69 -12 -91 11 -5 19 -17 19 -25 0 -12 -7 -15
-30 -12 -40 6 -63 -18 -27 -27 45 -12 80 -2 96 27 15 26 14 29 -13 57 -31 33
-27 54 9 45 33 -8 42 14 10 26 -14 6 -27 10 -28 9 -1 0 -12 -4 -24 -9z"/>
<path d="M28 218 c7 -7 12 -40 12 -80 0 -65 1 -68 24 -68 25 0 28 5 90 113
l27 47 -23 0 c-17 0 -30 -13 -50 -48 l-27 -47 -1 48 c0 46 -1 47 -32 47 -25 0
-29 -3 -20 -12z"/>
<path d="M173 168 c-12 -35 -25 -71 -29 -81 -6 -15 -3 -18 16 -15 18 2 28 18
51 81 l28 77 -22 0 c-18 0 -26 -11 -44 -62z"/>
<path d="M412 218 c-11 -15 -72 -135 -72 -143 0 -12 31 -4 36 10 4 8 17 15 30
15 15 0 24 -6 24 -15 0 -8 9 -15 20 -15 17 0 20 7 20 43 0 75 -11 117 -30 117
-10 0 -22 -6 -28 -12z m18 -63 c0 -15 -6 -25 -15 -25 -12 0 -13 4 -3 25 6 14
13 25 15 25 1 0 3 -11 3 -25z"/>
<path d="M0 20 c0 -6 87 -10 240 -10 153 0 240 4 240 10 0 6 -87 10 -240 10
-153 0 -240 -4 -240 -10z"/>
</g>
</svg>
